PathFileType	4	(X/Y/Z)	C:\Users\WrightLab\Desktop\Jo\P1_boxCal33.trc
DataRate	CameraRate	NumFrames	NumMarkers	Units	OrigDataRate	OrigDataStartFrame	OrigNumFrames
100.00	100.00	       9	19	mm	100.00	235	       624
Frame#	Time	Headset_Front			Headset_Back			Headset_Left			Headset_Right			Left_Shoulder			Right_Shoulder			Sternum			C7			Left Elbow			Right Elbow			Left Wrist			Right Wrist			Left ASIS			Right ASIS			S2			Left Knee			Right Knee			Left Ankle			Right Ankle			
		X1	Y1	Z1	X2	Y2	Z2	X3	Y3	Z3	X4	Y4	Z4	X5	Y5	Z5	X6	Y6	Z6	X7	Y7	Z7	X8	Y8	Z8	X9	Y9	Z9	X10	Y10	Z10	X11	Y11	Z11	X12	Y12	Z12	X13	Y13	Z13	X14	Y14	Z14	X15	Y15	Z15	X16	Y16	Z16	X17	Y17	Z17	X18	Y18	Z18	X19	Y19	Z19	

235	2.340	-470.73477	1316.18860	309.89969	-619.15710	1503.20776	116.91593	-476.96826	1409.15002	123.56227	-605.13538	1383.44116	308.87582	-483.85968	1254.63123	-5.73000	-766.10376	1256.96143	248.35066	-561.11438	1145.15063	226.47284	-693.11401	1272.72131	28.48078	-495.83319	944.07123	-118.31279	-845.09845	996.96899	326.26862	-398.31790	745.30389	-100.40980	-769.53070	801.62073	486.65332	-493.54550	862.75201	185.15266	-675.92505	863.03937	270.09537	-717.03796	888.07959	-58.35129	-444.05490	463.38394	153.91344	-817.93237	436.18851	145.96841	-390.10254	131.84154	285.35620	-420.69592	152.96545	431.31393	
236	2.350	-464.69748	1316.19470	317.13910	-613.34955	1503.16370	123.49876	-471.16254	1408.05676	131.19873	-599.41992	1382.73499	315.98523	-477.85904	1253.34924	1.50620	-759.80566	1254.86145	254.90504	-554.55811	1144.83887	232.45105	-686.40948	1270.96045	36.75135	-491.10294	943.04333	-110.74085	-838.07080	996.06140	333.41702	-394.58826	743.75208	-94.36260	-760.84326	801.94946	495.22610	-488.03784	862.48895	194.45340	-670.90363	862.50342	278.45154	-711.11670	886.12341	-49.12519	-438.19910	462.37234	162.63982	-813.20819	436.07297	151.27228	-382.42184	131.36774	291.81491	-425.50766	129.69398	399.48218	
237	2.360	-458.37305	1316.13440	323.52600	-607.91687	1501.78967	131.03018	-464.54803	1407.92664	138.00017	-593.25714	1382.66138	323.07199	-471.68192	1252.06799	9.71664	-754.88263	1255.78687	262.44537	-549.40442	1144.04187	241.94507	-680.45917	1270.11035	44.15483	-486.02151	941.62415	-101.63997	-830.84296	994.91229	340.09146	-390.70700	741.73724	-87.69552	-751.19708	801.98370	502.87045	-482.20828	862.13818	202.58452	-665.31726	862.43842	288.34491	-704.95490	885.38104	-40.05855	-432.43823	462.32111	172.15005	-807.87585	436.00351	157.07169	-376.21091	128.38777	297.65970	-420.76599	128.31808	405.30588	
238	2.370	-452.05115	1316.17017	330.26276	-602.30310	1501.74512	137.34499	-459.48065	1407.57288	144.51207	-587.06140	1382.99170	330.11850	-465.25262	1250.55798	16.58679	-749.34760	1255.95447	269.61420	-543.16681	1145.00330	250.06058	-674.63995	1270.07776	49.66719	-480.70444	939.78070	-94.25004	-824.55890	994.26019	346.97372	-386.56940	740.68463	-80.91221	-742.34149	802.43781	509.62027	-475.70886	861.54999	212.71065	-659.09546	862.83588	296.61911	-698.58832	884.25104	-30.87406	-425.78769	462.18488	180.36398	-802.72522	435.59183	163.73999	-371.76877	125.16843	300.35007				
239	2.380	-445.39893	1316.14966	337.29950	-596.23486	1501.64014	143.73453	-453.51785	1408.10291	150.73825	-580.97015	1382.92322	337.11288	-458.31305	1249.94458	24.37170	-742.92468	1255.44128	276.78613	-537.59894	1145.56091	258.99509	-667.87012	1268.87805	57.72707	-475.22711	938.70630	-86.02318	-818.12238	993.79657	353.48785	-381.81006	739.46289	-74.36021	-734.13422	802.48938	516.18817	-470.03323	860.82288	221.20345	-652.65253	862.95453	305.92654	-691.83527	883.00366	-21.53530	-418.31680	461.92694	190.08557	-797.24017	435.98093	170.59502	-367.98419	120.97770	302.84668	-386.31366	119.72305	412.26715	
240	2.390	-438.42117	1317.67932	344.50449	-590.30450	1501.84705	149.89590	-446.87302	1408.47180	157.93718	-574.15753	1383.35938	344.01904	-451.42752	1248.95776	31.19673	-736.57196	1255.70776	283.98947	-530.26251	1144.37231	265.66089	-660.22180	1268.08118	65.54474	-468.84451	938.08118	-77.63104	-811.19592	993.14331	359.55167	-375.21207	737.62799	-67.11245	-726.49194	803.53961	523.16681	-463.14832	861.39105	230.92589	-645.76556	863.31146	316.53705	-685.11053	882.82245	-11.49525	-411.60605	461.63950	199.19264	-791.46350	436.39587	177.68993	-365.04123	115.89776	303.15204	-394.94736	90.26653	367.26007	
241	2.400	-431.60965	1318.48230	351.90869	-583.41211	1500.48022	159.09055	-440.34052	1408.44580	164.82022	-567.21967	1383.71973	350.82544	-444.37750	1248.16211	39.24065	-729.98901	1256.11523	290.94342	-523.84259	1145.34460	273.19858	-653.12549	1267.47607	72.80500	-462.54263	936.79547	-69.34569	-804.95721	992.97675	365.38885	-368.88394	737.01550	-60.02258	-718.82770	803.84845	528.80902	-456.45496	861.10876	240.41150	-638.97205	863.05811	326.16409	-677.83838	881.58667	-2.66775	-404.23306	461.11133	208.63904	-785.83044	436.92807	186.29126	-362.58261	111.60223	303.03156				
242	2.410	-424.55917	1318.98132	358.50018	-576.39166	1500.44250	165.51381	-433.48526	1409.23853	172.13350	-560.27710	1384.52344	357.69769	-437.09216	1247.89258	46.32901	-723.59827	1256.42151	297.88895	-516.26935	1145.66858	281.31595	-645.97913	1267.14722	79.58282	-454.46799	936.67218	-63.14434	-798.75818	993.09106	370.37677	-362.72000	736.18762	-52.71370	-711.18646	803.72711	534.31439	-449.94443	861.79889	250.87912	-631.31842	864.41071	337.00165	-670.72113	881.54681	6.71982	-396.38141	460.27881	217.50839	-778.61340	436.52112	197.21889	-361.03818	107.60454	304.63074	-401.28561	106.71257	412.40060	
243	2.420	-416.63498	1321.13428	366.28745	-569.49396	1500.83240	171.69923	-425.67526	1409.74475	178.53444	-553.15979	1385.35889	364.59415	-429.19238	1247.25366	54.02819	-716.59973	1256.86719	305.09854	-509.49414	1148.31213	291.79538	-638.67902	1266.71960	87.32058	-447.24377	936.34467	-54.42955	-792.16400	992.11487	374.74789	-356.65030	736.12561	-44.75732	-704.66791	804.37408	539.74615	-441.44565	862.42242	259.54004	-623.60779	865.40216	345.42395	-662.75348	880.39032	17.23290	-388.73148	459.42758	225.67148	-771.55377	436.88730	206.87485	-357.61520	104.79744	307.49432	-385.80533	76.96760	373.18066	
